<?xml version="1.0" encoding="UTF-8" standalone="no"?>
<!-- Created with Inkscape (http://www.inkscape.org/) -->

<svg
   xmlns:dc="http://purl.org/dc/elements/1.1/"
   xmlns:cc="http://creativecommons.org/ns#"
   xmlns:rdf="http://www.w3.org/1999/02/22-rdf-syntax-ns#"
   xmlns:svg="http://www.w3.org/2000/svg"
   xmlns="http://www.w3.org/2000/svg"
   xmlns:sodipodi="http://sodipodi.sourceforge.net/DTD/sodipodi-0.dtd"
   xmlns:inkscape="http://www.inkscape.org/namespaces/inkscape"
   width="20.06144mm"
   height="12.121026mm"
   viewBox="0 0 20.06144 12.121026"
   version="1.1"
   id="svg31"
   inkscape:version="0.92.3 (2405546, 2018-03-11)"
   sodipodi:docname="arrow-left-white.svg">
  <defs
     id="defs25" />
  <sodipodi:namedview
     id="base"
     pagecolor="#ffffff"
     bordercolor="#666666"
     borderopacity="1.0"
     inkscape:pageopacity="0.0"
     inkscape:pageshadow="2"
     inkscape:zoom="0.35"
     inkscape:cx="1395.0542"
     inkscape:cy="-442.80841"
     inkscape:document-units="mm"
     inkscape:current-layer="layer1"
     showgrid="false"
     inkscape:window-width="2560"
     inkscape:window-height="1021"
     inkscape:window-x="0"
     inkscape:window-y="0"
     inkscape:window-maximized="1" />
  <metadata
     id="metadata28">
    <rdf:RDF>
      <cc:Work
         rdf:about="">
        <dc:format>image/svg+xml</dc:format>
        <dc:type
           rdf:resource="http://purl.org/dc/dcmitype/StillImage" />
        <dc:title></dc:title>
      </cc:Work>
    </rdf:RDF>
  </metadata>
  <g
     inkscape:label="Capa 1"
     inkscape:groupmode="layer"
     id="layer1"
     transform="translate(263.27477,-19.552582)">
    <path
       inkscape:connector-curvature="0"
       style="fill:#ffffff;stroke-width:0.26458332"
       d="m -243.21333,25.637933 c 0,-0.2921 -0.23707,-0.529167 -0.52917,-0.529167 h -17.75036 l 4.65269,-4.652962 c 0.20664,-0.20664 0.20664,-0.541602 0,-0.748242 -0.20637,-0.20664 -0.54186,-0.20664 -0.74824,0 l -5.53138,5.531379 c -0.20664,0.20664 -0.20664,0.541602 0,0.748242 l 5.53138,5.531379 c 0.10319,0.103452 0.23866,0.155046 0.37412,0.155046 0.13547,0 0.27094,-0.05159 0.37412,-0.155046 0.20664,-0.20664 0.20664,-0.541602 0,-0.748242 l -4.60295,-4.603221 h 17.70062 c 0.2921,0 0.52917,-0.237066 0.52917,-0.529166 z"
       id="path2" />
  </g>
</svg>
