<svg xmlns="http://www.w3.org/2000/svg" width="1385" height="1385"><g fill="#FFFFFA" fill-opacity=".05" fill-rule="evenodd"><path d="M692.4 1384.8c-93.293 0-184.016-18.366-269.648-54.588-82.49-34.887-156.494-84.752-219.95-148.209-63.453-63.45-113.32-137.456-148.217-219.961C18.366 876.415 0 785.694 0 692.401c0-93.291 18.365-184.013 54.586-269.645 34.894-82.501 84.761-156.505 148.215-219.958 63.451-63.451 137.455-113.317 219.956-148.214C508.394 18.365 599.115 0 692.4 0c93.288 0 184.01 18.365 269.644 54.586 82.497 34.893 156.501 84.758 219.955 148.211 63.457 63.457 113.325 137.466 148.218 219.971 36.218 85.621 54.582 176.339 54.582 269.633 0 93.291-18.366 184.013-54.587 269.648-34.886 82.487-84.75 156.488-148.206 219.947-63.458 63.457-137.463 113.325-219.962 148.219-85.633 36.22-176.355 54.585-269.644 54.585"/><path d="M692.4 1314.8c-83.872 0-165.42-16.505-242.378-49.058-74.146-31.358-140.672-76.185-197.723-133.236-57.046-57.045-101.877-123.572-133.244-197.732C86.505 857.821 70 776.274 70 692.401c0-83.872 16.504-165.419 49.055-242.376 31.366-74.157 76.196-140.683 133.242-197.729 57.045-57.046 123.572-101.874 197.73-133.241C526.987 86.504 608.533 70 692.4 70c83.87 0 165.416 16.505 242.375 49.056 74.152 31.363 140.678 76.191 197.727 133.239 57.051 57.052 101.88 123.58 133.245 197.739 32.548 76.947 49.052 158.492 49.052 242.367 0 83.873-16.505 165.42-49.057 242.378-31.358 74.143-76.184 140.667-133.235 197.721-57.049 57.049-123.576 101.879-197.732 133.244-76.958 32.551-158.505 49.056-242.375 49.056"/><path d="M692.4 1244.8c-74.452 0-146.825-14.645-215.108-43.527-65.804-27.83-124.85-67.62-175.496-118.265-50.64-50.64-90.433-109.687-118.27-175.503C154.643 839.225 140 766.853 140 692.401c0-74.452 14.643-146.825 43.526-215.107 27.836-65.812 67.627-124.859 118.27-175.5 50.638-50.64 109.685-90.432 175.5-118.268C545.58 154.645 617.951 140 692.4 140c74.451 0 146.823 14.645 215.106 43.526 65.808 27.834 124.855 67.625 175.5 118.267 50.644 50.646 90.435 109.695 118.27 175.508 28.88 68.272 43.523 140.644 43.523 215.1 0 74.453-14.644 146.826-43.527 215.108-27.829 65.802-67.62 124.849-118.264 175.495-50.64 50.641-109.687 90.433-175.502 118.27-68.283 28.881-140.655 43.526-215.106 43.526"/><path d="M692.4 1174.8c-65.034 0-128.23-12.784-187.839-37.997-57.463-24.303-109.03-59.057-153.267-103.293-44.237-44.234-78.99-95.803-103.298-153.273C222.784 820.63 210 757.433 210 692.401c0-65.033 12.784-128.231 37.996-187.838 24.307-57.468 59.061-109.036 103.296-153.272 44.234-44.234 95.802-78.988 153.272-103.295C564.172 222.783 627.37 210 692.4 210c65.032 0 128.23 12.783 187.837 37.996 57.467 24.306 109.034 59.059 153.271 103.295 44.24 44.239 78.992 95.809 103.296 153.277 25.212 59.601 37.995 122.798 37.995 187.833 0 65.033-12.784 128.231-37.997 187.837-24.302 57.464-59.056 109.032-103.293 153.27-44.233 44.233-95.8 78.987-153.272 103.296-59.607 25.212-122.804 37.996-187.837 37.996"/><path d="M692.4 1104.8c-55.613 0-109.636-10.923-160.568-32.467-49.122-20.775-93.212-50.492-131.042-88.321s-67.545-81.919-88.325-131.044C290.922 802.036 280 748.013 280 692.401c0-55.614 10.922-109.637 32.465-160.569 20.78-49.125 50.496-93.215 88.325-131.043 37.828-37.828 81.918-67.545 131.043-88.323C582.765 290.924 636.788 280 692.4 280c55.612 0 109.636 10.924 160.568 32.467 49.124 20.777 93.213 50.493 131.043 88.322 37.83 37.83 67.546 81.92 88.323 131.045 21.543 50.93 32.465 104.953 32.465 160.567 0 55.612-10.922 109.635-32.466 160.568-20.776 49.122-50.493 93.212-88.322 131.042-37.828 37.828-81.918 67.544-131.044 88.323-50.93 21.543-104.955 32.466-160.567 32.466"/><path d="M692.4 1034.8c-46.192 0-91.04-9.063-133.299-26.937-40.78-17.248-77.39-41.926-108.814-73.349-31.423-31.423-56.102-68.033-73.35-108.815C359.061 783.442 350 738.593 350 692.401c0-46.194 9.062-91.041 26.936-133.299 17.25-40.781 41.928-77.393 73.351-108.815 31.423-31.424 68.033-56.101 108.814-73.351C601.36 359.063 646.207 350 692.401 350c46.192 0 91.04 9.063 133.298 26.937 40.781 17.249 77.391 41.926 108.814 73.35 31.423 31.422 56.102 68.034 73.35 108.815 17.874 42.258 26.936 87.105 26.936 133.299 0 46.192-9.062 91.041-26.936 133.298-17.248 40.782-41.927 77.392-73.35 108.815-31.423 31.423-68.033 56.1-108.814 73.349-42.258 17.874-87.106 26.937-133.299 26.937"/></g></svg>