<svg xmlns="http://www.w3.org/2000/svg" xmlns:xlink="http://www.w3.org/1999/xlink" version="1.1" x="0px" y="0px" viewBox="0 0 64 80" style="enable-background:new 0 0 64 64;" xml:space="preserve"><path d="M27,62h10c0.553,0,1-0.448,1-1v-9.382l1.447-0.724C39.786,50.725,40,50.379,40,50v-6c0-2.017-1.501-3.69-3.443-3.961  C36.846,39.402,37,38.708,37,38c0-2.757-2.243-5-5-5s-5,2.243-5,5c0,0.708,0.154,1.402,0.443,2.039C25.501,40.31,24,41.983,24,44v6  c0,0.379,0.214,0.725,0.553,0.895L26,51.618V61C26,61.552,26.447,62,27,62z M26,44c0-1.103,0.897-2,2-2h1.38  c0.417,0,0.79-0.258,0.937-0.648s0.035-0.83-0.278-1.104C29.369,39.662,29,38.864,29,38c0-1.654,1.346-3,3-3s3,1.346,3,3  c0,0.864-0.369,1.662-1.038,2.247c-0.313,0.274-0.425,0.714-0.278,1.104S34.203,42,34.62,42H36c1.103,0,2,0.897,2,2v5.382  l-1.447,0.724C36.214,50.275,36,50.621,36,51v9h-8v-9c0-0.379-0.214-0.725-0.553-0.895L26,49.382V44z"/><polygon points="31,49 33,49 33,45.618 34.447,44.895 33.553,43.105 32,43.882 30.447,43.105 29.553,44.895 31,45.618 "/><path d="M32,2c-4.963,0-9,4.038-9,9s4.037,9,9,9s9-4.038,9-9S36.963,2,32,2z M32,18c-3.859,0-7-3.14-7-7s3.141-7,7-7s7,3.14,7,7  S35.859,18,32,18z"/><path d="M53,2c-4.963,0-9,4.038-9,9s4.037,9,9,9s9-4.038,9-9S57.963,2,53,2z M53,18c-3.859,0-7-3.14-7-7s3.141-7,7-7s7,3.14,7,7  S56.859,18,53,18z"/><path d="M53,22c-4.963,0-9,4.038-9,9s4.037,9,9,9s9-4.038,9-9S57.963,22,53,22z M53,38c-3.859,0-7-3.14-7-7s3.141-7,7-7s7,3.14,7,7  S56.859,38,53,38z"/><polygon points="55.121,7.464 53,9.586 50.879,7.464 49.465,8.878 51.586,11 49.465,13.122 50.879,14.536 53,12.414 55.121,14.536   56.535,13.122 54.414,11 56.535,8.878 "/><polygon points="54.95,27.293 52.829,29.414 50.707,27.293 49.293,28.707 51.414,30.828 49.293,32.95 50.707,34.364 52.829,32.242   54.95,34.364 56.364,32.95 54.243,30.828 56.364,28.707 "/><path d="M11,20c4.963,0,9-4.038,9-9s-4.037-9-9-9s-9,4.038-9,9S6.037,20,11,20z M11,4c3.859,0,7,3.14,7,7s-3.141,7-7,7s-7-3.14-7-7  S7.141,4,11,4z"/><path d="M11,40c4.963,0,9-4.038,9-9s-4.037-9-9-9s-9,4.038-9,9S6.037,40,11,40z M11,24c3.859,0,7,3.14,7,7s-3.141,7-7,7s-7-3.14-7-7  S7.141,24,11,24z"/><polygon points="8.879,14.536 11,12.414 13.121,14.536 14.535,13.122 12.414,11 14.535,8.878 13.121,7.464 11,9.586 8.879,7.464   7.465,8.878 9.586,11 7.465,13.122 "/><polygon points="8.707,34.364 10.829,32.242 12.95,34.364 14.364,32.95 12.243,30.828 14.364,28.707 12.95,27.293 10.829,29.414   8.707,27.293 7.293,28.707 9.414,30.828 7.293,32.95 "/><path d="M30.933,12.519l-2.226-2.226l-1.414,1.414l3,3C30.48,14.895,30.735,15,31,15c0.015,0,0.03,0,0.045-0.001  c0.281-0.013,0.543-0.143,0.724-0.359l5-6l-1.537-1.28L30.933,12.519z"/><path d="M33,31v-5l1.2,1.6l1.6-1.2l-3-4c-0.377-0.504-1.223-0.504-1.6,0l-3,4l1.6,1.2L31,26v5H33z"/><rect x="4" y="56" width="2" height="2"/><rect x="4" y="60" width="2" height="2"/><rect x="6" y="58" width="2" height="2"/><rect x="2" y="58" width="2" height="2"/><rect x="58" y="56" width="2" height="2"/><rect x="58" y="60" width="2" height="2"/><rect x="60" y="58" width="2" height="2"/><rect x="56" y="58" width="2" height="2"/><text x="0" y="79" fill="#000000" font-size="5px" font-weight="bold" font-family="'Helvetica Neue', Helvetica, Arial-Unicode, Arial, Sans-serif">Created by Nithinan Tatah</text><text x="0" y="84" fill="#000000" font-size="5px" font-weight="bold" font-family="'Helvetica Neue', Helvetica, Arial-Unicode, Arial, Sans-serif">from the Noun Project</text></svg>